<svg width="22" height="22" viewBox="0 0 22 22" fill="none" xmlns="http://www.w3.org/2000/svg">
<path d="M19.0819 0.166687C20.5985 0.166687 21.8335 1.41252 21.8335 2.9411V6.63419C21.8335 8.17252 20.5985 9.40752 19.0819 9.40752H15.4202C13.8927 9.40752 12.6685 8.17252 12.6685 6.63419V2.9411C12.6685 1.41252 13.8927 0.166687 15.4202 0.166687H19.0819Z" fill="white"/>
<path d="M6.58008 12.5922C8.10758 12.5922 9.33175 13.8283 9.33175 15.3666V19.0597C9.33175 20.5872 8.10758 21.833 6.58008 21.833H2.91841C1.40175 21.833 0.166748 20.5872 0.166748 19.0597V15.3666C0.166748 13.8283 1.40175 12.5922 2.91841 12.5922H6.58008Z" fill="#DEDEDE"/>
<path d="M19.0819 12.5922C20.5985 12.5922 21.8335 13.8283 21.8335 15.3666V19.0597C21.8335 20.5872 20.5985 21.833 19.0819 21.833H15.4202C13.8927 21.833 12.6685 20.5872 12.6685 19.0597V15.3666C12.6685 13.8283 13.8927 12.5922 15.4202 12.5922H19.0819Z" fill="#343434"/>
<path d="M6.58008 0.166687C8.10758 0.166687 9.33175 1.41252 9.33175 2.9411V6.63419C9.33175 8.17252 8.10758 9.40752 6.58008 9.40752H2.91841C1.40175 9.40752 0.166748 8.17252 0.166748 6.63419V2.9411C0.166748 1.41252 1.40175 0.166687 2.91841 0.166687H6.58008Z" fill="#8C8C8C"/>
</svg>
