<svg width="22" height="22" viewBox="0 0 22 22" fill="none" xmlns="http://www.w3.org/2000/svg">
<path d="M15.7017 0.0415039C19.3742 0.0415039 21.8334 2.61984 21.8334 6.45484V15.3068C21.8334 19.1298 19.3742 21.7082 15.7017 21.7082H6.30925C2.63675 21.7082 0.166748 19.1298 0.166748 15.3068V6.45484C0.166748 2.61984 2.63675 0.0415039 6.30925 0.0415039H15.7017ZM15.5284 7.62484C15.1601 7.2565 14.5534 7.2565 14.1851 7.62484L9.71092 12.099L7.81508 10.2032C7.44675 9.83484 6.84008 9.83484 6.47175 10.2032C6.10342 10.5715 6.10342 11.1673 6.47175 11.5465L9.05008 14.114C9.23425 14.2982 9.47258 14.3848 9.71092 14.3848C9.96008 14.3848 10.1984 14.2982 10.3826 14.114L15.5284 8.96817C15.8967 8.59984 15.8967 8.004 15.5284 7.62484Z" fill="#343434"/>
<path d="M15.5284 7.62484C15.1601 7.2565 14.5534 7.2565 14.1851 7.62484L9.71092 12.099L7.81508 10.2032C7.44675 9.83484 6.84008 9.83484 6.47175 10.2032C6.10342 10.5715 6.10342 11.1673 6.47175 11.5465L9.05008 14.114C9.23425 14.2982 9.47258 14.3848 9.71092 14.3848C9.96008 14.3848 10.1984 14.2982 10.3826 14.114L15.5284 8.96817C15.8967 8.59984 15.8967 8.004 15.5284 7.62484Z" fill="#343434"/>
</svg>
