<svg width="25" height="24" viewBox="0 0 25 24" fill="none" xmlns="http://www.w3.org/2000/svg">
<path d="M11.4081 0.208374C14.3044 0.208374 16.6666 2.53004 16.6666 5.38837V10.9767H9.54449C9.03408 10.9767 8.63049 11.3734 8.63049 11.875C8.63049 12.365 9.03408 12.7734 9.54449 12.7734H16.6666V18.35C16.6666 21.2084 14.3044 23.5417 11.3844 23.5417H5.6036C2.69541 23.5417 0.333252 21.22 0.333252 18.3617V5.40004C0.333252 2.53004 2.70728 0.208374 5.61547 0.208374H11.4081ZM19.6301 7.85027C19.9802 7.48861 20.5518 7.48861 20.9018 7.83861L24.3085 11.2336C24.4835 11.4086 24.5768 11.6303 24.5768 11.8753C24.5768 12.1086 24.4835 12.3419 24.3085 12.5053L20.9018 15.9003C20.7268 16.0753 20.4935 16.1686 20.2718 16.1686C20.0385 16.1686 19.8052 16.0753 19.6301 15.9003C19.2802 15.5503 19.2802 14.9786 19.6301 14.6286L21.4968 12.7736L16.6666 12.7734V10.9767L21.4968 10.9769L19.6301 9.12194C19.2802 8.77194 19.2802 8.20027 19.6301 7.85027Z" fill="#343434"/>
</svg>
