<svg width="26" height="24" viewBox="0 0 26 24" fill="none" xmlns="http://www.w3.org/2000/svg">
<path fill-rule="evenodd" clip-rule="evenodd" d="M9.875 0C13.3182 0 16.0783 2.79579 16.0783 6.28355C16.0783 9.77131 13.3182 12.5671 9.875 12.5671C6.43179 12.5671 3.67171 9.77131 3.67171 6.28355C3.67171 2.79579 6.43179 0 9.875 0Z" fill="#343434"/>
<path d="M21.7487 6.25C22.369 6.25 22.8724 6.76181 22.8724 7.38952V8.85983H24.3763C24.9953 8.85983 25.5 9.37164 25.5 9.99935C25.5 10.6271 24.9953 11.1389 24.3763 11.1389H22.8724V12.6105C22.8724 13.2382 22.369 13.75 21.7487 13.75C21.1297 13.75 20.625 13.2382 20.625 12.6105V11.1389H19.1237C18.5034 11.1389 18 10.6271 18 9.99935C18 9.37164 18.5034 8.85983 19.1237 8.85983H20.625V7.38952C20.625 6.76181 21.1297 6.25 21.7487 6.25Z" fill="#8C8C8C"/>
<path d="M9.875 15.644C14.9585 15.644 19.25 16.4804 19.25 19.7109C19.25 22.9414 14.931 23.75 9.875 23.75C4.79151 23.75 0.5 22.9123 0.5 19.6831C0.5 16.4526 4.81778 15.644 9.875 15.644Z" fill="white"/>
</svg>
