<svg width="26" height="26" viewBox="0 0 26 26" fill="none" xmlns="http://www.w3.org/2000/svg">
<path d="M9.16485 0.000214426C10.3751 -0.0125635 11.5048 0.546427 12.2458 1.49541L13.3898 3.01639C13.7538 3.47138 14.2998 3.74437 14.8847 3.74437H18.8757C23.6726 3.74437 26.0126 6.30533 25.9996 11.5572V17.8881C25.9996 22.906 22.9056 26 17.8747 26H8.11186C3.10695 26 0 22.9061 0 17.8751V8.1123C0 2.73039 2.39196 0.000214426 7.11088 0.000214426H9.16485ZM19.0187 15.3272H6.98088C6.43489 15.3272 6.0059 15.7562 6.0059 16.3022C6.0059 16.8352 6.43489 17.2771 6.98088 17.2771H19.0187C19.5517 17.2771 19.9807 16.8352 19.9807 16.3022C19.9807 15.7562 19.5517 15.3272 19.0187 15.3272Z" fill="#343434"/>
</svg>
