<svg width="25" height="19" viewBox="0 0 25 19" fill="none" xmlns="http://www.w3.org/2000/svg">
<path fill-rule="evenodd" clip-rule="evenodd" d="M17.3553 5.21944C17.3553 2.32925 15.312 0.3125 12.3854 0.3125H5.38667C2.46006 0.3125 0.416748 2.32925 0.416748 5.21944V13.5306C0.416748 16.4207 2.46006 18.4375 5.38667 18.4375H12.3854C15.312 18.4375 17.3553 16.4207 17.3553 13.5306V5.21944Z" fill="#343434"/>
<path d="M22.116 3.18711C22.6464 2.91722 23.2687 2.94544 23.775 3.26439C24.2813 3.58211 24.5834 4.13415 24.5834 4.7377V14.013C24.5834 14.6178 24.2813 15.1686 23.775 15.4863C23.4983 15.6593 23.189 15.7476 22.8772 15.7476C22.6174 15.7476 22.3576 15.6863 22.1148 15.5624L20.3252 14.6595C19.663 14.3234 19.2522 13.6487 19.2522 12.8992V5.85035C19.2522 5.09959 19.663 4.42488 20.3252 4.09121L22.116 3.18711Z" fill="#8C8C8C"/>
</svg>
